<svg xmlns="http://www.w3.org/2000/svg" height="24" viewBox="0 -960 960 960" width="24"><path d="M90-730.001v-179.998H270v59.998h-120v120H90.001Zm720.001 0v-120h-120v-59.998h179.998v179.998h-59.998Zm-720 680v-179.998h59.998v120h120v59.998H90.001Zm600 0v-59.998h120v-120h59.998v179.998H690.001ZM269.999-242.308q0 4.616 3.847 8.462 3.846 3.847 8.462 3.847h395.384q4.616 0 8.462-3.847 3.847-3.846 3.847-8.462v-475.384q0-4.616-3.847-8.462-3.846-3.847-8.462-3.847H282.308q-4.616 0-8.462 3.847-3.847 3.846-3.847 8.462v475.384Zm12.309 72.307q-30.308 0-51.307-21-21-20.999-21-51.307v-475.384q0-30.308 21-51.307 20.999-21 51.307-21h395.384q30.308 0 51.307 21 21 20.999 21 51.307v475.384q0 30.308-21 51.307-20.999 21-51.307 21H282.308Zm87.693-400h219.998v-59.998H370.001v59.998Zm0 120h219.998v-59.998H370.001v59.998Zm0 120h219.998v-59.998H370.001v59.998Zm-100.002 87.693v-487.693 500.002-12.309Z"/></svg>